<svg xmlns="http://www.w3.org/2000/svg" width="460" height="330" viewBox="0 0 460 330">
<defs><marker id="arrow" viewBox="0 0 10 10" refX="9" refY="5" markerWidth="5" markerHeight="5" orient="auto-start-reverse"><path d="M0 0 10 5 0 10" fill="none" stroke="#7183a3" stroke-width="1.5"/></marker></defs>
<rect width="460" height="330" fill="#f0f4fa"/>
<style>text{font-family:Arial,sans-serif;fill:#344565;font-size:12px}.small{font-size:10px;fill:#536580}.label{font-size:11px;letter-spacing:1.2px;fill:#2446a8}</style><text x="30" y="30" class="label" text-anchor="start">SHARING ACROSS MODALITIES</text><rect x="25" y="70" width="87" height="32" rx="5" fill="#fff" stroke="#cdd8eb"/><text x="69" y="91" class="" text-anchor="middle">Image</text><path d="M112 86h22L170 161" fill="none" stroke="#9aaccb" stroke-width="1.2"/><rect x="25" y="118" width="87" height="32" rx="5" fill="#fff" stroke="#cdd8eb"/><text x="69" y="139" class="" text-anchor="middle">Audio</text><path d="M112 134h22L170 161" fill="none" stroke="#9aaccb" stroke-width="1.2"/><rect x="25" y="166" width="87" height="32" rx="5" fill="#fff" stroke="#cdd8eb"/><text x="69" y="187" class="" text-anchor="middle">Text</text><path d="M112 182h22L170 161" fill="none" stroke="#9aaccb" stroke-width="1.2"/><rect x="25" y="214" width="87" height="32" rx="5" fill="#fff" stroke="#cdd8eb"/><text x="69" y="235" class="" text-anchor="middle">3D</text><path d="M112 230h22L170 161" fill="none" stroke="#9aaccb" stroke-width="1.2"/><rect x="170" y="104" width="130" height="112" rx="8" fill="#2446a8"/><text x="235" y="145" text-anchor="middle" style="fill:#fff;font-size:14px">Shared</text><text x="235" y="165" text-anchor="middle" style="fill:#fff;font-size:14px">representation</text><rect x="192" y="184" width="10" height="10" rx="2" fill="#a9c1ee" opacity="0.4"/><rect x="207" y="184" width="10" height="10" rx="2" fill="#a9c1ee" opacity="0.5"/><rect x="222" y="184" width="10" height="10" rx="2" fill="#a9c1ee" opacity="0.6000000000000001"/><rect x="237" y="184" width="10" height="10" rx="2" fill="#a9c1ee" opacity="0.7000000000000001"/><rect x="252" y="184" width="10" height="10" rx="2" fill="#a9c1ee" opacity="0.8"/><rect x="267" y="184" width="10" height="10" rx="2" fill="#a9c1ee" opacity="0.9"/><path d="M300 160 L333 106" fill="none" stroke="#7183a3" stroke-width="1.5" marker-end="url(#arrow)"/><rect x="337" y="90" width="98" height="32" rx="5" fill="#e2e9f5"/><text x="386" y="111" class="" text-anchor="middle">Recognize</text><path d="M300 160 L333 161" fill="none" stroke="#7183a3" stroke-width="1.5" marker-end="url(#arrow)"/><rect x="337" y="145" width="98" height="32" rx="5" fill="#e2e9f5"/><text x="386" y="166" class="" text-anchor="middle">Predict</text><path d="M300 160 L333 216" fill="none" stroke="#7183a3" stroke-width="1.5" marker-end="url(#arrow)"/><rect x="337" y="200" width="98" height="32" rx="5" fill="#e2e9f5"/><text x="386" y="221" class="" text-anchor="middle">Segment</text><text x="69" y="291" class="small" text-anchor="middle">Inputs</text><text x="235" y="291" class="small" text-anchor="middle">Learn together</text><text x="386" y="291" class="small" text-anchor="middle">Task heads</text></svg>
